<svg width="90" height="90" viewBox="0 0 90 90" fill="none" xmlns="http://www.w3.org/2000/svg">
<path d="M88.3488 1.64883H1.6488V88.3488H88.3488V1.64883Z" fill="white"/>
<path d="M86.764 0H0V90H90V0H86.764ZM86.764 86.764H3.23835V3.23598H86.764V86.764Z" fill="#170E30"/>
<path d="M22.7017 15.1384V15.1004C22.7017 11.2832 19.729 8.19672 15.5844 8.19672C11.4398 8.19672 8.43634 11.3236 8.43634 15.1384V15.1764C8.43634 18.9912 11.409 22.0777 15.5536 22.0777C16.9661 22.0871 18.3512 21.6875 19.5416 20.9271L21.0173 22.2509L22.8962 20.1608L21.5155 18.9912C22.2919 17.8567 22.7056 16.5132 22.7017 15.1384ZM19.6175 15.1764C19.6279 15.809 19.5034 16.4366 19.2522 17.0174L17.0577 15.0222L15.1598 17.1312L17.3448 18.9912C16.7894 19.2356 16.1888 19.36 15.5821 19.3566C13.2096 19.3566 11.5181 17.4373 11.5181 15.1384V15.1004C11.5181 12.7992 13.1646 10.9202 15.5512 10.9202C17.9379 10.9202 19.6152 12.8372 19.6152 15.1384L19.6175 15.1764Z" fill="#170E30"/>
<path d="M9.37579 28.7086V36.3763C9.37579 40.3263 11.5821 42.3381 15.1858 42.3381C18.7895 42.3381 21.0718 40.3453 21.0718 36.2814V28.7086H18.1182V36.3952C18.1182 38.5304 17.0268 39.617 15.2238 39.617C13.4208 39.617 12.3295 38.4853 12.3295 36.2956V28.7039L9.37579 28.7086Z" fill="#170E30"/>
<path d="M38.827 16.1158C38.827 18.251 37.7333 19.3376 35.9302 19.3376C34.1272 19.3376 33.0359 18.2059 33.0359 16.0162V8.42444H30.0846V16.0873C30.0846 20.0374 32.2886 22.0492 35.8923 22.0492C39.496 22.0492 41.7782 20.0564 41.7782 15.9924V8.42681H38.827V16.1158Z" fill="#170E30"/>
<path d="M13.862 48.3522L8.11127 61.875H11.1266L12.3531 58.8644H18.028L19.2545 61.875H22.3387L16.5832 48.3522H13.862ZM13.4018 56.2524L15.1858 51.899L16.9699 56.2524H13.4018Z" fill="#170E30"/>
<path d="M54.3568 8.33194L48.6061 21.8547H51.6143L52.8432 18.8441H58.518L59.7446 21.8547H62.8287L57.0756 8.33194H54.3568ZM53.8966 16.2321L55.6806 11.8787L57.4623 16.2321H53.8966Z" fill="#170E30"/>
<path d="M78.9374 8.42682V17.2925L71.4145 8.42919V8.42682H68.4608V21.8547H71.4145V12.9913L78.9374 21.8547H81.8887V8.42682H78.9374Z" fill="#170E30"/>
<path d="M18.9841 77.0276L11.4612 68.1643V68.1619H8.50989V81.5898H11.4612V72.7264L18.9841 81.5898H21.9378V68.1619H18.9841V77.0276Z" fill="#170E30"/>
<path d="M81.8863 39.1093V27.9898H79.1628V32.0727H68.4656V35.0264H79.1628V39.1093H81.8863Z" fill="#170E30"/>
<path d="M28.8106 70.8949H32.8935V81.5921H35.8448V70.8949H39.9301V68.1714H28.8106V70.8949Z" fill="#170E30"/>
<path d="M74.3136 59.0115H81.8863V56.0602H74.1997C72.0645 56.0602 70.9779 54.9665 70.9779 53.1659C70.9779 51.3652 72.1096 50.2692 74.2993 50.2692H81.8911V47.3179H74.2187C70.2686 47.3179 68.2568 49.5218 68.2568 53.1255C68.2568 56.7292 70.2496 59.0115 74.3136 59.0115Z" fill="#170E30"/>
<path d="M57.6473 75.8723C57.6473 78.0074 56.5536 79.094 54.7506 79.094C52.9476 79.094 51.8563 77.9624 51.8563 75.7726V68.1809H48.905V75.8485C48.905 79.7986 51.1089 81.8104 54.7126 81.8104C58.3163 81.8104 60.5986 79.8176 60.5986 75.7536V68.1738H57.6473V75.8723Z" fill="#170E30"/>
<path d="M68.4608 71.1132H76.7809L71.4643 74.8806L76.7809 78.6456H68.4608V81.5969H81.8887V78.6456L76.5721 74.8806L81.8887 71.1132V68.1619H68.4608V71.1132Z" fill="#170E30"/>
</svg>
